<svg width="73" height="60" viewBox="0 0 73 60" fill="none" xmlns="http://www.w3.org/2000/svg">
<circle cx="32.4568" cy="56.781" r="3.13844" fill="#E0E2FE"/>
<circle cx="55.6775" cy="56.781" r="3.13844" fill="#E0E2FE"/>
<path d="M19.7988 10.254C19.6276 9.04963 20.5624 7.97266 21.7789 7.97266H70.1628C71.4352 7.97266 72.3841 9.14514 72.1188 10.3896L66.9355 34.7075C66.2469 37.9385 63.393 40.2482 60.0893 40.2482H30.1365C26.651 40.2482 23.6965 37.6839 23.2062 34.233L19.7988 10.254Z" fill="#E0E2FE"/>
<path d="M15.5703 12.8185C15.3991 11.6141 16.3339 10.5371 17.5504 10.5371H65.9343C67.2067 10.5371 68.1556 11.7096 67.8903 12.954L62.707 37.2719C62.0183 40.503 59.1644 42.8127 55.8608 42.8127H25.908C22.4225 42.8127 19.468 40.2483 18.9776 36.7975L15.5703 12.8185Z" stroke="#675E7A" stroke-width="1.5"/>
<path d="M51.9365 42.8125H23.9951C21.9699 42.8125 20.3281 44.4543 20.3281 46.4795V46.4795C20.3281 48.5047 21.9699 50.1465 23.9951 50.1465H61.4448" stroke="#675E7A" stroke-width="1.5" stroke-linecap="round"/>
<path d="M1.36718 1.08203H8.66417C11.6427 1.08203 14.1703 3.26701 14.6011 6.21418L16.7777 21.1044" stroke="#675E7A" stroke-width="1.5" stroke-linecap="round"/>
<rect x="56.4023" y="18.7559" width="3.30352" height="4.69748" rx="1.65176" fill="#675E7A"/>
<rect x="41.3438" y="18.7559" width="3.30352" height="4.69748" rx="1.65176" fill="#675E7A"/>
<circle cx="31.0056" cy="55.8474" r="3.13844" stroke="#675E7A" stroke-width="1.5"/>
<circle cx="54.2263" cy="55.8474" r="3.13844" stroke="#675E7A" stroke-width="1.5"/>
<path d="M49.2617 25.2051L51.7896 25.2051" stroke="#675E7A" stroke-width="2" stroke-linecap="round"/>
<path d="M20.3281 11.0938L22.1864 22.9397" stroke="#675E7A" stroke-width="1.5" stroke-linecap="round"/>
<path d="M22.7441 25.9395L23.0149 27.4091" stroke="#675E7A" stroke-width="1.5" stroke-linecap="round"/>
</svg>
